<mxfile host="Electron" agent="Mozilla/5.0 (X11; Linux x86_64) AppleWebKit/537.36 (KHTML, like Gecko) draw.io/26.1.1 Chrome/132.0.6834.210 Electron/34.3.3 Safari/537.36" version="26.1.1">
  <diagram name="Page-1" id="998hf08gsKu0WtAary2x">
    <mxGraphModel dx="2004" dy="1203" grid="1" gridSize="10" guides="1" tooltips="1" connect="1" arrows="1" fold="1" page="1" pageScale="1" pageWidth="850" pageHeight="1100" math="0" shadow="0">
      <root>
        <mxCell id="0" />
        <mxCell id="1" parent="0" />
        <mxCell id="rcmA0PEQGOaXHSwvXyTd-2" value="Пользователи" style="rounded=1;whiteSpace=wrap;html=1;" parent="1" vertex="1">
          <mxGeometry x="380" y="170" width="120" height="90" as="geometry" />
        </mxCell>
        <mxCell id="rcmA0PEQGOaXHSwvXyTd-3" value="" style="endArrow=classic;html=1;rounded=0;entryX=0;entryY=0.25;entryDx=0;entryDy=0;" parent="1" target="rcmA0PEQGOaXHSwvXyTd-2" edge="1">
          <mxGeometry width="50" height="50" relative="1" as="geometry">
            <mxPoint x="70" y="190" as="sourcePoint" />
            <mxPoint x="450" y="500" as="targetPoint" />
          </mxGeometry>
        </mxCell>
        <mxCell id="rcmA0PEQGOaXHSwvXyTd-4" value="Регистрация пользователя" style="edgeLabel;html=1;align=center;verticalAlign=middle;resizable=0;points=[];" parent="rcmA0PEQGOaXHSwvXyTd-3" vertex="1" connectable="0">
          <mxGeometry x="-0.2778" y="1" relative="1" as="geometry">
            <mxPoint x="54" y="-9" as="offset" />
          </mxGeometry>
        </mxCell>
        <mxCell id="rcmA0PEQGOaXHSwvXyTd-5" value="Турниры / Игры по договоренности" style="rounded=1;whiteSpace=wrap;html=1;" parent="1" vertex="1">
          <mxGeometry x="380" y="330" width="120" height="180" as="geometry" />
        </mxCell>
        <mxCell id="rcmA0PEQGOaXHSwvXyTd-6" value="" style="endArrow=classic;html=1;rounded=0;entryX=0.5;entryY=1;entryDx=0;entryDy=0;exitX=0.512;exitY=0.028;exitDx=0;exitDy=0;exitPerimeter=0;" parent="1" source="rcmA0PEQGOaXHSwvXyTd-5" target="rcmA0PEQGOaXHSwvXyTd-2" edge="1">
          <mxGeometry width="50" height="50" relative="1" as="geometry">
            <mxPoint x="280" y="340" as="sourcePoint" />
            <mxPoint x="330" y="290" as="targetPoint" />
          </mxGeometry>
        </mxCell>
        <mxCell id="rcmA0PEQGOaXHSwvXyTd-7" value="" style="endArrow=classic;html=1;rounded=0;entryX=0.004;entryY=0.159;entryDx=0;entryDy=0;entryPerimeter=0;" parent="1" target="rcmA0PEQGOaXHSwvXyTd-5" edge="1">
          <mxGeometry width="50" height="50" relative="1" as="geometry">
            <mxPoint x="70" y="360" as="sourcePoint" />
            <mxPoint x="330" y="290" as="targetPoint" />
          </mxGeometry>
        </mxCell>
        <mxCell id="rcmA0PEQGOaXHSwvXyTd-8" value="Создание турнира" style="edgeLabel;html=1;align=center;verticalAlign=middle;resizable=0;points=[];" parent="rcmA0PEQGOaXHSwvXyTd-7" vertex="1" connectable="0">
          <mxGeometry x="-0.0215" relative="1" as="geometry">
            <mxPoint y="-10" as="offset" />
          </mxGeometry>
        </mxCell>
        <mxCell id="rcmA0PEQGOaXHSwvXyTd-9" value="" style="endArrow=classic;html=1;rounded=0;entryX=-0.002;entryY=0.343;entryDx=0;entryDy=0;entryPerimeter=0;" parent="1" target="rcmA0PEQGOaXHSwvXyTd-5" edge="1">
          <mxGeometry width="50" height="50" relative="1" as="geometry">
            <mxPoint x="70" y="390" as="sourcePoint" />
            <mxPoint x="330" y="290" as="targetPoint" />
          </mxGeometry>
        </mxCell>
        <mxCell id="rcmA0PEQGOaXHSwvXyTd-10" value="Создание регулятного турнира" style="edgeLabel;html=1;align=center;verticalAlign=middle;resizable=0;points=[];" parent="rcmA0PEQGOaXHSwvXyTd-9" vertex="1" connectable="0">
          <mxGeometry x="-0.1244" relative="1" as="geometry">
            <mxPoint x="4" y="-10" as="offset" />
          </mxGeometry>
        </mxCell>
        <mxCell id="rcmA0PEQGOaXHSwvXyTd-11" value="" style="endArrow=classic;html=1;rounded=0;entryX=-0.017;entryY=0.52;entryDx=0;entryDy=0;entryPerimeter=0;" parent="1" target="rcmA0PEQGOaXHSwvXyTd-5" edge="1">
          <mxGeometry width="50" height="50" relative="1" as="geometry">
            <mxPoint x="70" y="421" as="sourcePoint" />
            <mxPoint x="380" y="420" as="targetPoint" />
          </mxGeometry>
        </mxCell>
        <mxCell id="rcmA0PEQGOaXHSwvXyTd-12" value="Создание игры по договоренности" style="edgeLabel;html=1;align=center;verticalAlign=middle;resizable=0;points=[];" parent="rcmA0PEQGOaXHSwvXyTd-11" vertex="1" connectable="0">
          <mxGeometry x="-0.0215" relative="1" as="geometry">
            <mxPoint y="-10" as="offset" />
          </mxGeometry>
        </mxCell>
        <mxCell id="rcmA0PEQGOaXHSwvXyTd-13" value="Бои" style="rounded=1;whiteSpace=wrap;html=1;" parent="1" vertex="1">
          <mxGeometry x="380" y="550" width="120" height="70" as="geometry" />
        </mxCell>
        <mxCell id="rcmA0PEQGOaXHSwvXyTd-14" value="" style="endArrow=classic;html=1;rounded=0;entryX=1;entryY=0.5;entryDx=0;entryDy=0;exitX=1;exitY=0.667;exitDx=0;exitDy=0;exitPerimeter=0;" parent="1" source="rcmA0PEQGOaXHSwvXyTd-13" target="rcmA0PEQGOaXHSwvXyTd-2" edge="1">
          <mxGeometry width="50" height="50" relative="1" as="geometry">
            <mxPoint x="560" y="610" as="sourcePoint" />
            <mxPoint x="520" y="200" as="targetPoint" />
            <Array as="points">
              <mxPoint x="560" y="597" />
              <mxPoint x="560" y="215" />
            </Array>
          </mxGeometry>
        </mxCell>
        <mxCell id="rcmA0PEQGOaXHSwvXyTd-15" value="" style="endArrow=classic;html=1;rounded=0;entryX=1;entryY=0.5;entryDx=0;entryDy=0;exitX=0.992;exitY=0.144;exitDx=0;exitDy=0;exitPerimeter=0;" parent="1" source="rcmA0PEQGOaXHSwvXyTd-13" target="rcmA0PEQGOaXHSwvXyTd-5" edge="1">
          <mxGeometry width="50" height="50" relative="1" as="geometry">
            <mxPoint x="510" y="620" as="sourcePoint" />
            <mxPoint x="510" y="210" as="targetPoint" />
            <Array as="points">
              <mxPoint x="540" y="560" />
              <mxPoint x="540" y="420" />
            </Array>
          </mxGeometry>
        </mxCell>
        <mxCell id="rcmA0PEQGOaXHSwvXyTd-17" value="" style="endArrow=classic;html=1;rounded=0;entryX=-0.008;entryY=0.701;entryDx=0;entryDy=0;entryPerimeter=0;" parent="1" target="rcmA0PEQGOaXHSwvXyTd-13" edge="1">
          <mxGeometry width="50" height="50" relative="1" as="geometry">
            <mxPoint x="80" y="599" as="sourcePoint" />
            <mxPoint x="360" y="600" as="targetPoint" />
          </mxGeometry>
        </mxCell>
        <mxCell id="rcmA0PEQGOaXHSwvXyTd-18" value="Запросить просмотр боя" style="edgeLabel;html=1;align=center;verticalAlign=middle;resizable=0;points=[];" parent="rcmA0PEQGOaXHSwvXyTd-17" vertex="1" connectable="0">
          <mxGeometry x="-0.0215" relative="1" as="geometry">
            <mxPoint y="-10" as="offset" />
          </mxGeometry>
        </mxCell>
        <mxCell id="rcmA0PEQGOaXHSwvXyTd-21" style="edgeStyle=orthogonalEdgeStyle;rounded=0;orthogonalLoop=1;jettySize=auto;html=1;entryX=1;entryY=0.75;entryDx=0;entryDy=0;exitX=0.976;exitY=0.263;exitDx=0;exitDy=0;exitPerimeter=0;" parent="1" source="rcmA0PEQGOaXHSwvXyTd-19" target="rcmA0PEQGOaXHSwvXyTd-5" edge="1">
          <mxGeometry relative="1" as="geometry">
            <mxPoint x="660" y="230" as="targetPoint" />
            <mxPoint x="520" y="710" as="sourcePoint" />
            <Array as="points">
              <mxPoint x="497" y="710" />
              <mxPoint x="590" y="710" />
              <mxPoint x="590" y="430" />
            </Array>
          </mxGeometry>
        </mxCell>
        <mxCell id="rcmA0PEQGOaXHSwvXyTd-19" value="Рейтинги участников&lt;div&gt;Рейтинги турниров&lt;/div&gt;" style="rounded=1;whiteSpace=wrap;html=1;" parent="1" vertex="1">
          <mxGeometry x="380" y="670" width="120" height="140" as="geometry" />
        </mxCell>
        <mxCell id="rcmA0PEQGOaXHSwvXyTd-23" value="" style="endArrow=classic;html=1;rounded=0;entryX=0.004;entryY=0.318;entryDx=0;entryDy=0;entryPerimeter=0;" parent="1" edge="1">
          <mxGeometry width="50" height="50" relative="1" as="geometry">
            <mxPoint x="68.08" y="690.48" as="sourcePoint" />
            <mxPoint x="378.56" y="690.0000000000002" as="targetPoint" />
          </mxGeometry>
        </mxCell>
        <mxCell id="rcmA0PEQGOaXHSwvXyTd-24" value="Получить рейтинг участника" style="edgeLabel;html=1;align=center;verticalAlign=middle;resizable=0;points=[];" parent="rcmA0PEQGOaXHSwvXyTd-23" vertex="1" connectable="0">
          <mxGeometry x="-0.0215" relative="1" as="geometry">
            <mxPoint y="-10" as="offset" />
          </mxGeometry>
        </mxCell>
        <mxCell id="rcmA0PEQGOaXHSwvXyTd-25" value="" style="endArrow=classic;html=1;rounded=0;entryX=-0.02;entryY=0.3;entryDx=0;entryDy=0;entryPerimeter=0;" parent="1" target="rcmA0PEQGOaXHSwvXyTd-13" edge="1">
          <mxGeometry width="50" height="50" relative="1" as="geometry">
            <mxPoint x="80" y="570" as="sourcePoint" />
            <mxPoint x="370" y="570" as="targetPoint" />
          </mxGeometry>
        </mxCell>
        <mxCell id="rcmA0PEQGOaXHSwvXyTd-26" value="Получить список боев в турнире или в игре" style="edgeLabel;html=1;align=center;verticalAlign=middle;resizable=0;points=[];" parent="rcmA0PEQGOaXHSwvXyTd-25" vertex="1" connectable="0">
          <mxGeometry x="-0.0215" relative="1" as="geometry">
            <mxPoint y="-10" as="offset" />
          </mxGeometry>
        </mxCell>
        <mxCell id="rcmA0PEQGOaXHSwvXyTd-27" style="edgeStyle=orthogonalEdgeStyle;rounded=0;orthogonalLoop=1;jettySize=auto;html=1;entryX=1;entryY=0.25;entryDx=0;entryDy=0;exitX=0.984;exitY=0.406;exitDx=0;exitDy=0;exitPerimeter=0;" parent="1" edge="1">
          <mxGeometry relative="1" as="geometry">
            <mxPoint x="501.92000000000024" y="200" as="targetPoint" />
            <mxPoint x="500.00000000000017" y="734.3400000000001" as="sourcePoint" />
            <Array as="points">
              <mxPoint x="602" y="734" />
              <mxPoint x="602" y="200" />
            </Array>
          </mxGeometry>
        </mxCell>
        <mxCell id="rcmA0PEQGOaXHSwvXyTd-30" value="" style="endArrow=classic;html=1;rounded=0;" parent="1" edge="1">
          <mxGeometry width="50" height="50" relative="1" as="geometry">
            <mxPoint x="68.08" y="738.48" as="sourcePoint" />
            <mxPoint x="380" y="739" as="targetPoint" />
          </mxGeometry>
        </mxCell>
        <mxCell id="rcmA0PEQGOaXHSwvXyTd-31" value="Получить рейтинг турнира" style="edgeLabel;html=1;align=center;verticalAlign=middle;resizable=0;points=[];" parent="rcmA0PEQGOaXHSwvXyTd-30" vertex="1" connectable="0">
          <mxGeometry x="-0.0215" relative="1" as="geometry">
            <mxPoint y="-10" as="offset" />
          </mxGeometry>
        </mxCell>
        <mxCell id="rcmA0PEQGOaXHSwvXyTd-32" value="" style="endArrow=classic;html=1;rounded=0;entryX=-0.004;entryY=0.842;entryDx=0;entryDy=0;entryPerimeter=0;" parent="1" edge="1">
          <mxGeometry width="50" height="50" relative="1" as="geometry">
            <mxPoint x="80.48" y="440" as="sourcePoint" />
            <mxPoint x="380" y="441.55999999999995" as="targetPoint" />
          </mxGeometry>
        </mxCell>
        <mxCell id="rcmA0PEQGOaXHSwvXyTd-33" value="Получить список турниров" style="edgeLabel;html=1;align=center;verticalAlign=middle;resizable=0;points=[];" parent="rcmA0PEQGOaXHSwvXyTd-32" vertex="1" connectable="0">
          <mxGeometry x="0.2339" relative="1" as="geometry">
            <mxPoint x="-41" y="-11" as="offset" />
          </mxGeometry>
        </mxCell>
        <mxCell id="rcmA0PEQGOaXHSwvXyTd-34" value="" style="endArrow=classic;html=1;rounded=0;entryX=0;entryY=0.75;entryDx=0;entryDy=0;" parent="1" edge="1">
          <mxGeometry width="50" height="50" relative="1" as="geometry">
            <mxPoint x="70" y="216.25" as="sourcePoint" />
            <mxPoint x="380.0000000000002" y="213.75" as="targetPoint" />
          </mxGeometry>
        </mxCell>
        <mxCell id="rcmA0PEQGOaXHSwvXyTd-35" value="Получение списка пользоватетей" style="edgeLabel;html=1;align=center;verticalAlign=middle;resizable=0;points=[];" parent="rcmA0PEQGOaXHSwvXyTd-34" vertex="1" connectable="0">
          <mxGeometry x="-0.0384" y="-1" relative="1" as="geometry">
            <mxPoint y="-11" as="offset" />
          </mxGeometry>
        </mxCell>
        <mxCell id="rcmA0PEQGOaXHSwvXyTd-36" value="" style="endArrow=classic;html=1;rounded=0;entryX=0.018;entryY=0.675;entryDx=0;entryDy=0;entryPerimeter=0;" parent="1" target="rcmA0PEQGOaXHSwvXyTd-19" edge="1">
          <mxGeometry width="50" height="50" relative="1" as="geometry">
            <mxPoint x="68.08" y="765.48" as="sourcePoint" />
            <mxPoint x="375.92000000000013" y="763.6399999999999" as="targetPoint" />
          </mxGeometry>
        </mxCell>
        <mxCell id="rcmA0PEQGOaXHSwvXyTd-37" value="Обновить рейтинг турнира" style="edgeLabel;html=1;align=center;verticalAlign=middle;resizable=0;points=[];" parent="rcmA0PEQGOaXHSwvXyTd-36" vertex="1" connectable="0">
          <mxGeometry x="0.0905" y="2" relative="1" as="geometry">
            <mxPoint y="-7" as="offset" />
          </mxGeometry>
        </mxCell>
        <mxCell id="rcmA0PEQGOaXHSwvXyTd-38" value="" style="endArrow=classic;html=1;rounded=0;entryX=0;entryY=0.5;entryDx=0;entryDy=0;" parent="1" edge="1">
          <mxGeometry width="50" height="50" relative="1" as="geometry">
            <mxPoint x="70.08" y="716.48" as="sourcePoint" />
            <mxPoint x="378.0800000000002" y="715.48" as="targetPoint" />
          </mxGeometry>
        </mxCell>
        <mxCell id="rcmA0PEQGOaXHSwvXyTd-39" value="Обновить рейтинг участника" style="edgeLabel;html=1;align=center;verticalAlign=middle;resizable=0;points=[];" parent="rcmA0PEQGOaXHSwvXyTd-38" vertex="1" connectable="0">
          <mxGeometry x="0.0905" y="2" relative="1" as="geometry">
            <mxPoint y="-7" as="offset" />
          </mxGeometry>
        </mxCell>
        <mxCell id="rcmA0PEQGOaXHSwvXyTd-40" value="Рассылка уведомлений" style="rounded=1;whiteSpace=wrap;html=1;" parent="1" vertex="1">
          <mxGeometry x="570" y="860" width="120" height="60" as="geometry" />
        </mxCell>
        <mxCell id="rcmA0PEQGOaXHSwvXyTd-41" value="" style="endArrow=none;html=1;rounded=0;entryX=-0.008;entryY=0.328;entryDx=0;entryDy=0;entryPerimeter=0;startArrow=classic;startFill=0;" parent="1" target="rcmA0PEQGOaXHSwvXyTd-40" edge="1">
          <mxGeometry width="50" height="50" relative="1" as="geometry">
            <mxPoint x="100" y="880" as="sourcePoint" />
            <mxPoint x="220" y="510" as="targetPoint" />
          </mxGeometry>
        </mxCell>
        <mxCell id="rcmA0PEQGOaXHSwvXyTd-42" value="Уведомнение о бое" style="edgeLabel;html=1;align=center;verticalAlign=middle;resizable=0;points=[];" parent="rcmA0PEQGOaXHSwvXyTd-41" vertex="1" connectable="0">
          <mxGeometry x="-0.2137" y="-1" relative="1" as="geometry">
            <mxPoint y="-11" as="offset" />
          </mxGeometry>
        </mxCell>
        <mxCell id="rcmA0PEQGOaXHSwvXyTd-44" value="" style="endArrow=classic;html=1;rounded=0;exitX=0.94;exitY=1.033;exitDx=0;exitDy=0;exitPerimeter=0;entryX=0.25;entryY=0;entryDx=0;entryDy=0;" parent="1" source="rcmA0PEQGOaXHSwvXyTd-13" target="rcmA0PEQGOaXHSwvXyTd-40" edge="1">
          <mxGeometry width="50" height="50" relative="1" as="geometry">
            <mxPoint x="520" y="560" as="sourcePoint" />
            <mxPoint x="570" y="510" as="targetPoint" />
          </mxGeometry>
        </mxCell>
        <mxCell id="rcmA0PEQGOaXHSwvXyTd-45" value="" style="endArrow=classic;html=1;rounded=0;entryX=0.933;entryY=0.933;entryDx=0;entryDy=0;entryPerimeter=0;exitX=0.5;exitY=0;exitDx=0;exitDy=0;" parent="1" source="rcmA0PEQGOaXHSwvXyTd-40" target="rcmA0PEQGOaXHSwvXyTd-2" edge="1">
          <mxGeometry width="50" height="50" relative="1" as="geometry">
            <mxPoint x="520" y="560" as="sourcePoint" />
            <mxPoint x="570" y="510" as="targetPoint" />
          </mxGeometry>
        </mxCell>
        <mxCell id="w4lcs5ZPbeEwO5QiKDTP-1" value="" style="endArrow=classic;html=1;rounded=0;entryX=-0.002;entryY=0.674;entryDx=0;entryDy=0;entryPerimeter=0;" parent="1" edge="1">
          <mxGeometry width="50" height="50" relative="1" as="geometry">
            <mxPoint x="80.24" y="460" as="sourcePoint" />
            <mxPoint x="380" y="461.31999999999994" as="targetPoint" />
          </mxGeometry>
        </mxCell>
        <mxCell id="w4lcs5ZPbeEwO5QiKDTP-2" value="Подать заявку на участие в турнире" style="edgeLabel;html=1;align=center;verticalAlign=middle;resizable=0;points=[];" parent="w4lcs5ZPbeEwO5QiKDTP-1" vertex="1" connectable="0">
          <mxGeometry x="0.2339" relative="1" as="geometry">
            <mxPoint x="-41" y="-11" as="offset" />
          </mxGeometry>
        </mxCell>
        <mxCell id="w4lcs5ZPbeEwO5QiKDTP-3" value="" style="endArrow=classic;html=1;rounded=0;entryX=-0.002;entryY=0.674;entryDx=0;entryDy=0;entryPerimeter=0;" parent="1" edge="1">
          <mxGeometry width="50" height="50" relative="1" as="geometry">
            <mxPoint x="80.24" y="480" as="sourcePoint" />
            <mxPoint x="380" y="481.31999999999994" as="targetPoint" />
          </mxGeometry>
        </mxCell>
        <mxCell id="w4lcs5ZPbeEwO5QiKDTP-4" value="посмотреть результаты турнира" style="edgeLabel;html=1;align=center;verticalAlign=middle;resizable=0;points=[];" parent="w4lcs5ZPbeEwO5QiKDTP-3" vertex="1" connectable="0">
          <mxGeometry x="0.2339" relative="1" as="geometry">
            <mxPoint x="-41" y="-11" as="offset" />
          </mxGeometry>
        </mxCell>
        <mxCell id="R7ib4joKLKwesgAIsm0G-2" value="" style="endArrow=classic;html=1;rounded=0;entryX=0;entryY=0.75;entryDx=0;entryDy=0;" parent="1" target="rcmA0PEQGOaXHSwvXyTd-2" edge="1">
          <mxGeometry width="50" height="50" relative="1" as="geometry">
            <mxPoint x="70" y="240" as="sourcePoint" />
            <mxPoint x="410" y="490" as="targetPoint" />
          </mxGeometry>
        </mxCell>
        <mxCell id="R7ib4joKLKwesgAIsm0G-3" value="Войти в систему" style="edgeLabel;html=1;align=center;verticalAlign=middle;resizable=0;points=[];" parent="R7ib4joKLKwesgAIsm0G-2" vertex="1" connectable="0">
          <mxGeometry x="-0.5924" relative="1" as="geometry">
            <mxPoint x="87" y="-9" as="offset" />
          </mxGeometry>
        </mxCell>
        <mxCell id="R7ib4joKLKwesgAIsm0G-4" value="" style="endArrow=classic;html=1;rounded=0;entryX=-0.018;entryY=0.844;entryDx=0;entryDy=0;entryPerimeter=0;" parent="1" edge="1">
          <mxGeometry width="50" height="50" relative="1" as="geometry">
            <mxPoint x="72.16" y="791.84" as="sourcePoint" />
            <mxPoint x="380.0000000000001" y="789.9999999999999" as="targetPoint" />
          </mxGeometry>
        </mxCell>
        <mxCell id="R7ib4joKLKwesgAIsm0G-5" value="Увеличить рейтинг регулярного турнира" style="edgeLabel;html=1;align=center;verticalAlign=middle;resizable=0;points=[];" parent="R7ib4joKLKwesgAIsm0G-4" vertex="1" connectable="0">
          <mxGeometry x="0.0905" y="2" relative="1" as="geometry">
            <mxPoint y="-7" as="offset" />
          </mxGeometry>
        </mxCell>
      </root>
    </mxGraphModel>
  </diagram>
</mxfile>
